# xmcd CD database file
#
# Track frame offsets:
#	150
#	61625
#	117778
#	213836
#	221502
#	232867
#	247145
#	262111
#	277258
#	289369
#	302637
#	314257
#
# Disc length: 4409 seconds
#
# Revision: 0
# Processed by: cddbd v1.5.2PL0 Copyright (c) Steve Scherf et al.
# Submitted via: CDex 1.70beta2
#
DISCID=b611370c
DTITLE=Dophy, Eric - At The Five Spot Vol 1 - Hot And Cool Latin
DYEAR=1961
DGENRE=Jazz
TTITLE0=Free Waltz
TTITLE1=Bee Vamp
TTITLE2=The Prophet
TTITLE3=Opening
TTITLE4=Champs Elysees
TTITLE5=Truth
TTITLE6=Lost In The Night
TTITLE7=Frou Frou
TTITLE8=Lady E
TTITLE9=Fat Mouth
TTITLE10=Cawn Prawn
TTITLE11=You're The Cutest One
EXTD=YEAR: 1961
EXTT0=
EXTT1=
EXTT2=
EXTT3=
EXTT4=
EXTT5=
EXTT6=
EXTT7=
EXTT8=
EXTT9=
EXTT10=
EXTT11=
PLAYORDER=
